<svg width="18" height="19" viewBox="0 0 18 19" fill="none" xmlns="http://www.w3.org/2000/svg">
<g clip-path="url(#clip0_217_44)">
<path d="M15 13.024H13.5V6.28415L9 9.17267L4.5 6.28415V13.024H3V3.78077H3.9L9 7.05442L14.1 3.78077H15V13.024ZM15 2.24023H3C2.1675 2.24023 1.5 2.92577 1.5 3.78077V13.024C1.5 13.4326 1.65804 13.8245 1.93934 14.1134C2.22064 14.4023 2.60218 14.5646 3 14.5646H15C15.3978 14.5646 15.7794 14.4023 16.0607 14.1134C16.342 13.8245 16.5 13.4326 16.5 13.024V3.78077C16.5 3.3722 16.342 2.98035 16.0607 2.69145C15.7794 2.40255 15.3978 2.24023 15 2.24023Z" fill="white"/>
</g>
<defs>
<clipPath id="clip0_217_44">
<rect width="18" height="18.4865" fill="white" transform="translate(0 0.378418)"/>
</clipPath>
</defs>
</svg>
