<svg width="20" height="20" viewBox="0 0 20 20" fill="none" xmlns="http://www.w3.org/2000/svg">
<path d="M1.80723 10.1982C1.80723 7.71182 1.80723 7.37277 1.80723 6.35562C1.80723 5.45148 2.04819 4.99941 2.16867 4.66036C2.40964 4.20829 2.53012 3.86924 2.89157 3.53019C3.25301 3.19114 3.61446 2.96511 4.09639 2.85209C4.45783 2.73907 4.93976 2.62606 5.90362 2.51304C6.98795 2.51304 7.22892 2.51304 10 2.51304C12.7711 2.51304 13.012 2.51304 14.0964 2.51304C15.0602 2.51304 15.5422 2.73907 15.9036 2.85209C16.3855 3.07812 16.747 3.19114 17.1084 3.53019C17.4699 3.86924 17.7108 4.20829 17.8313 4.66036C17.9518 4.99941 18.0723 5.45148 18.1928 6.35562C18.1928 7.37277 18.1928 7.5988 18.1928 10.1982C18.1928 12.7976 18.1928 13.0236 18.1928 14.0408C18.1928 14.9449 17.9518 15.397 17.8313 15.736C17.5904 16.1881 17.4699 16.5272 17.1084 16.8662C16.747 17.2053 16.3855 17.4313 15.9036 17.5443C15.5422 17.6573 15.0602 17.7703 14.0964 17.8834C13.0121 17.8834 12.7711 17.8834 10 17.8834C7.22892 17.8834 6.98795 17.8834 5.90362 17.8834C4.93976 17.8834 4.45783 17.6573 4.09639 17.5443C3.61446 17.3183 3.25301 17.2053 2.89157 16.8662C2.53012 16.5272 2.28916 16.1881 2.16868 15.736C2.04819 15.397 1.92771 14.9449 1.80723 14.0408C1.80723 13.0236 1.80723 12.6846 1.80723 10.1982ZM-4.37114e-07 10.1982C-3.15986e-07 12.7976 -3.05453e-07 13.0236 -2.58055e-07 14.0408C-2.10657e-07 15.0579 0.240964 15.736 0.481928 16.3011C0.722892 16.8662 1.08434 17.4313 1.68675 17.9964C2.28916 18.5615 2.77109 18.7875 3.49398 19.1265C4.09639 19.3526 4.81928 19.4656 5.90362 19.5786C6.98795 19.5786 7.3494 19.5786 10 19.5786C12.7711 19.5786 13.0121 19.5786 14.0964 19.5786C15.1807 19.5786 15.9036 19.3526 16.506 19.1265C17.1084 18.9005 17.7108 18.5615 18.3133 17.9964C18.9157 17.4313 19.1566 16.9792 19.5181 16.3011C19.759 15.736 19.8795 15.0579 20 14.0408C20 13.0236 20 12.6846 20 10.1982C20 7.71182 20 7.37277 20 6.35562C20 5.33846 19.759 4.66036 19.5181 4.09528C19.2771 3.53019 18.9157 2.96511 18.3133 2.40002C17.7108 1.83493 17.2289 1.6089 16.506 1.26985C15.9036 1.04381 15.1807 0.9308 14.0964 0.817783C13.012 0.817783 12.6506 0.817783 10 0.817783C7.3494 0.817783 6.98795 0.817783 5.90362 0.817783C4.81928 0.817783 4.09639 1.04381 3.49398 1.26985C2.89157 1.49588 2.28916 1.83494 1.68675 2.40002C1.08434 2.96511 0.843374 3.41717 0.481928 4.09528C0.240964 4.66036 0.120481 5.33846 -6.16173e-07 6.35562C-5.68775e-07 7.37277 -5.58242e-07 7.5988 -4.37114e-07 10.1982Z" fill="white"/>
<path d="M4.81928 10.1982C4.81928 12.9106 7.10843 15.0579 10 15.0579C12.8916 15.0579 15.1807 12.9106 15.1807 10.1982C15.1807 7.48579 12.8916 5.33846 10 5.33846C7.10843 5.33846 4.81928 7.48579 4.81928 10.1982ZM13.3735 10.1982C13.3735 11.8935 11.9277 13.3627 10 13.3627C8.19277 13.3627 6.62651 12.0065 6.62651 10.1982C6.62651 8.50294 8.07229 7.03372 10 7.03372C11.8072 7.03372 13.3735 8.50294 13.3735 10.1982Z" fill="white"/>
<path d="M5.90362 5.22545C5.90362 4.60127 5.3642 4.09528 4.6988 4.09528C4.03339 4.09528 3.49398 4.60127 3.49398 5.22545C3.49398 5.84962 4.03339 6.35562 4.6988 6.35562C5.3642 6.35562 5.90362 5.84962 5.90362 5.22545Z" fill="white"/>
</svg>
