<svg width="20" height="20" viewBox="0 0 20 20" fill="none" xmlns="http://www.w3.org/2000/svg">
<path d="M9.76079 1.80723C12.2472 1.80723 12.5862 1.80723 13.6034 1.80723C14.5075 1.80723 14.9596 2.04819 15.2986 2.16868C15.7507 2.40964 16.0897 2.53012 16.4288 2.89157C16.7678 3.25301 16.9939 3.61446 17.1069 4.09639C17.2199 4.45783 17.3329 4.93976 17.4459 5.90362C17.4459 6.98795 17.4459 7.22892 17.4459 10C17.4459 12.7711 17.4459 13.0121 17.4459 14.0964C17.4459 15.0602 17.2199 15.5422 17.1069 15.9036C16.8809 16.3855 16.7678 16.747 16.4288 17.1084C16.0897 17.4699 15.7507 17.7108 15.2986 17.8313C14.9596 17.9518 14.5075 18.0723 13.6034 18.1928C12.5862 18.1928 12.3602 18.1928 9.76079 18.1928C7.16139 18.1928 6.93536 18.1928 5.91821 18.1928C5.01407 18.1928 4.562 17.9518 4.22295 17.8313C3.77088 17.5904 3.43183 17.4699 3.09278 17.1084C2.75373 16.747 2.5277 16.3855 2.41468 15.9036C2.30166 15.5422 2.18864 15.0602 2.07563 14.0964C2.07563 13.0121 2.07563 12.7711 2.07563 10C2.07563 7.22892 2.07563 6.98795 2.07563 5.90362C2.07563 4.93976 2.30166 4.45783 2.41468 4.09639C2.64071 3.61446 2.75373 3.25301 3.09278 2.89157C3.43183 2.53012 3.77088 2.28916 4.22295 2.16868C4.562 2.04819 5.01407 1.92771 5.91821 1.80723C6.93536 1.80723 7.27441 1.80723 9.76079 1.80723ZM9.76079 0C7.16139 0 6.93536 0 5.91821 0C4.90105 0 4.22295 0.240965 3.65787 0.481928C3.09278 0.722892 2.5277 1.08434 1.96261 1.68675C1.39753 2.28916 1.17149 2.77109 0.83244 3.49398C0.606406 4.09639 0.493388 4.81928 0.380371 5.90362C0.380371 6.98795 0.380371 7.3494 0.380371 10C0.380371 12.7711 0.380371 13.0121 0.380371 14.0964C0.380371 15.1807 0.606406 15.9036 0.83244 16.506C1.05847 17.1084 1.39753 17.7108 1.96261 18.3133C2.5277 18.9157 2.97976 19.1566 3.65787 19.5181C4.22295 19.759 4.90105 19.8795 5.91821 20C6.93536 20 7.27441 20 9.76079 20C12.2472 20 12.5862 20 13.6034 20C14.6205 20 15.2986 19.759 15.8637 19.5181C16.4288 19.2771 16.9939 18.9157 17.559 18.3133C18.124 17.7108 18.3501 17.2289 18.6891 16.506C18.9152 15.9036 19.0282 15.1807 19.1412 14.0964C19.1412 13.0121 19.1412 12.6506 19.1412 10C19.1412 7.3494 19.1412 6.98795 19.1412 5.90362C19.1412 4.81928 18.9152 4.09639 18.6891 3.49398C18.4631 2.89157 18.124 2.28916 17.559 1.68675C16.9939 1.08434 16.5418 0.843374 15.8637 0.481928C15.2986 0.240965 14.6205 0.120482 13.6034 0C12.5862 0 12.3602 0 9.76079 0Z" fill="#2F2D30"/>
<path d="M9.76079 4.81928C7.04838 4.81928 4.90105 7.10843 4.90105 10C4.90105 12.8916 7.04838 15.1807 9.76079 15.1807C12.4732 15.1807 14.6205 12.8916 14.6205 10C14.6205 7.10843 12.4732 4.81928 9.76079 4.81928ZM9.76079 13.3735C8.06553 13.3735 6.59631 11.9277 6.59631 10C6.59631 8.19277 7.95251 6.62651 9.76079 6.62651C11.456 6.62651 12.9253 8.07229 12.9253 10C12.9253 11.8072 11.456 13.3735 9.76079 13.3735Z" fill="#2F2D30"/>
<path d="M14.7335 5.90362C15.3577 5.90362 15.8637 5.3642 15.8637 4.6988C15.8637 4.03339 15.3577 3.49398 14.7335 3.49398C14.1094 3.49398 13.6034 4.03339 13.6034 4.6988C13.6034 5.3642 14.1094 5.90362 14.7335 5.90362Z" fill="#2F2D30"/>
</svg>
