<svg width="14" height="14" viewBox="0 0 14 14" fill="none" xmlns="http://www.w3.org/2000/svg">
<g clip-path="url(#clip0_221_72)">
<path fill-rule="evenodd" clip-rule="evenodd" d="M12.6234 9.71929L10.6478 9.50985C10.1734 9.45929 9.7067 9.61096 9.37225 9.92152L7.94114 11.2504C5.74003 10.2104 3.93559 8.54207 2.81559 6.49096L4.25448 5.15485C4.58892 4.84429 4.75225 4.41096 4.69781 3.9704L4.47225 2.1504C4.37892 1.42096 3.71781 0.87207 2.92448 0.87207H1.57892C0.700032 0.87207 -0.0310795 1.55096 0.023365 2.36707C0.435587 8.53485 5.74781 13.4604 12.3823 13.8432C13.2611 13.8937 13.9923 13.2148 13.9923 12.3987V11.1493C14 10.4198 13.4089 9.80596 12.6234 9.71929Z" fill="white"/>
</g>
<defs>
<clipPath id="clip0_221_72">
<rect width="14" height="13" fill="white" transform="translate(0 0.86499)"/>
</clipPath>
</defs>
</svg>
