<svg width="16" height="18" viewBox="0 0 16 18" fill="none" xmlns="http://www.w3.org/2000/svg">
<path d="M13.7148 2.98093C13.4933 2.95679 13.2524 2.99234 13.0104 3.09059C12.7104 3.21178 8.00961 5.24266 3.6276 7.13718L2.17968 7.76303C1.61902 7.99651 1.33594 8.37622 1.33594 8.88768C1.33594 9.24577 1.4835 9.73148 2.1875 10.0177L4.63151 11.0233C4.84285 11.6744 5.3337 13.1863 5.45703 13.5882C5.53036 13.8265 5.71559 14.4267 6.18359 14.5671C6.27959 14.6006 6.37977 14.6179 6.48177 14.6179C6.77711 14.6179 6.98975 14.4767 7.09375 14.3946L8.64714 13.0453L10.5339 14.8372C10.6065 14.9132 10.9912 15.2972 11.5078 15.2972C12.1525 15.2972 12.6415 14.7461 12.7435 14.2127C12.7988 13.9204 14.6185 4.53884 14.6185 4.54021C14.7818 3.78774 14.4882 3.3974 14.2995 3.23102C14.1378 3.08894 13.9364 3.00506 13.7148 2.98093ZM13.2734 4.45996C13.0221 5.75401 11.652 12.8175 11.444 13.8356L8.6862 11.2159L6.81511 12.8433L7.33333 10.7612C7.33333 10.7612 10.9084 7.04463 11.1237 6.82827C11.297 6.65504 11.3333 6.59432 11.3333 6.53407C11.3333 6.45396 11.2932 6.39633 11.2005 6.39633C11.1172 6.39633 11.004 6.47834 10.944 6.51668C10.1818 7.00474 6.93606 8.90381 5.33854 9.83714L3.02083 8.88634L4.14583 8.4009C7.01183 7.16162 12.1161 4.9543 13.2734 4.45996Z" fill="white"/>
</svg>
