<svg width="40" height="40" viewBox="0 0 40 40" fill="none" xmlns="http://www.w3.org/2000/svg">
<path d="M37.4498 37.2281H2.5498C2.38404 37.2281 2.22507 37.1623 2.10786 37.045C1.99065 36.9278 1.9248 36.7689 1.9248 36.6031V23.6C1.9248 23.4342 1.99065 23.2752 2.10786 23.158C2.22507 23.0408 2.38404 22.975 2.5498 22.975C2.71557 22.975 2.87454 23.0408 2.99175 23.158C3.10896 23.2752 3.1748 23.4342 3.1748 23.6V35.9781H36.8248V23.6C36.8248 23.4342 36.8907 23.2752 37.0079 23.158C37.1251 23.0408 37.284 22.975 37.4498 22.975C37.6156 22.975 37.7745 23.0408 37.8917 23.158C38.009 23.2752 38.0748 23.4342 38.0748 23.6V36.6031C38.0748 36.7689 38.009 36.9278 37.8917 37.045C37.7745 37.1623 37.6156 37.2281 37.4498 37.2281Z" fill="#3C3030"/>
<path d="M39.375 18.2375C39.2092 18.2375 39.0503 18.1717 38.9331 18.0545C38.8158 17.9373 38.75 17.7783 38.75 17.6125V8.1438H1.25V17.6125C1.25 17.7783 1.18415 17.9373 1.06694 18.0545C0.949732 18.1717 0.79076 18.2375 0.625 18.2375C0.45924 18.2375 0.300269 18.1717 0.183058 18.0545C0.065848 17.9373 0 17.7783 0 17.6125V7.5188C0 7.35304 0.065848 7.19407 0.183058 7.07686C0.300269 6.95965 0.45924 6.8938 0.625 6.8938H39.375C39.5408 6.8938 39.6997 6.95965 39.8169 7.07686C39.9342 7.19407 40 7.35304 40 7.5188V17.6125C40 17.7783 39.9342 17.9373 39.8169 18.0545C39.6997 18.1717 39.5408 18.2375 39.375 18.2375Z" fill="#3C3030"/>
<path d="M20 25.1907C10.1688 25.1907 0 22.4625 0 17.8938C0 17.728 0.065848 17.5691 0.183058 17.4519C0.300269 17.3346 0.45924 17.2688 0.625 17.2688C0.79076 17.2688 0.949732 17.3346 1.06694 17.4519C1.18415 17.5691 1.25 17.728 1.25 17.8938C1.25 20.8125 8.78438 23.9407 20 23.9407C31.2156 23.9407 38.75 20.8157 38.75 17.8938C38.75 17.728 38.8158 17.5691 38.9331 17.4519C39.0503 17.3346 39.2092 17.2688 39.375 17.2688C39.5408 17.2688 39.6997 17.3346 39.8169 17.4519C39.9342 17.5691 40 17.728 40 17.8938C40 22.4594 29.8312 25.1907 20 25.1907Z" fill="#3C3030"/>
<path d="M22.3748 22.5375H17.6248C17.292 22.5375 16.9625 22.4718 16.6552 22.3442C16.3478 22.2165 16.0687 22.0295 15.8338 21.7937C15.599 21.558 15.4129 21.2782 15.2864 20.9704C15.1599 20.6625 15.0955 20.3328 15.0967 20V19.65C15.0975 18.98 15.3642 18.3378 15.8383 17.8644C16.3123 17.3909 16.9549 17.125 17.6248 17.125H22.3748C23.0442 17.1258 23.686 17.3921 24.1594 17.8655C24.6327 18.3388 24.899 18.9806 24.8998 19.65V20C24.9011 20.3325 24.8367 20.662 24.7104 20.9696C24.5841 21.2772 24.3983 21.5569 24.1638 21.7926C23.9292 22.0283 23.6505 22.2154 23.3435 22.3433C23.0365 22.4711 22.7073 22.5371 22.3748 22.5375ZM17.6248 18.375C17.2869 18.3758 16.9631 18.5104 16.7242 18.7494C16.4852 18.9883 16.3506 19.3121 16.3498 19.65V20C16.3506 20.3379 16.4852 20.6617 16.7242 20.9007C16.9631 21.1396 17.2869 21.2742 17.6248 21.275H22.3748C22.7133 21.275 23.0379 21.1408 23.2775 20.9018C23.5171 20.6627 23.6521 20.3384 23.6529 20V19.65C23.6521 19.3116 23.5171 18.9873 23.2775 18.7482C23.0379 18.5092 22.7133 18.375 22.3748 18.375H17.6248Z" fill="#3C3030"/>
<path d="M28.2689 8.15623C28.1032 8.15623 27.9442 8.09038 27.827 7.97317C27.7098 7.85596 27.6439 7.69699 27.6439 7.53123V6.13435C27.6431 5.57433 27.4203 5.03749 27.0243 4.6415C26.6283 4.24551 26.0915 4.02268 25.5314 4.02185H14.4689C13.9089 4.02268 13.3721 4.24551 12.9761 4.6415C12.5801 5.03749 12.3573 5.57433 12.3564 6.13435V7.53123C12.3564 7.69699 12.2906 7.85596 12.1734 7.97317C12.0562 8.09038 11.8972 8.15623 11.7314 8.15623C11.5657 8.15623 11.4067 8.09038 11.2895 7.97317C11.1723 7.85596 11.1064 7.69699 11.1064 7.53123V6.13435C11.1073 5.24281 11.4618 4.38803 12.0922 3.75762C12.7226 3.12721 13.5774 2.77268 14.4689 2.77185H25.5314C26.423 2.77268 27.2778 3.12721 27.9082 3.75762C28.5386 4.38803 28.8931 5.24281 28.8939 6.13435V7.53123C28.8939 7.69699 28.8281 7.85596 28.7109 7.97317C28.5937 8.09038 28.4347 8.15623 28.2689 8.15623Z" fill="#3C3030"/>
</svg>
