<svg width="40" height="40" viewBox="0 0 40 40" fill="none" xmlns="http://www.w3.org/2000/svg">
<mask id="mask0_8_20568" style="mask-type:luminance" maskUnits="userSpaceOnUse" x="0" y="0" width="40" height="40">
<path d="M0 0H40V40H0V0Z" fill="white"/>
</mask>
<g mask="url(#mask0_8_20568)">
<path d="M4.24487 24.0507C4.49409 24.6585 4.73886 25.246 4.97198 25.7913C6.06456 28.3466 6.51144 29.0108 8.48144 30.9376L11.4763 33.8668C11.1285 35.2787 10.7807 36.6907 10.4329 38.1026C10.2853 38.6533 10.6838 39.2188 11.2154 39.2188H17.3326C18.1693 39.2188 18.6332 38.9134 18.8998 38.1916C21.7868 30.3728 14.5821 27.748 12.5385 25.1249C12.1125 24.5779 9.59159 21.2016 9.16542 20.6546C8.72073 20.0838 7.8912 19.9787 7.32206 20.4212C6.75292 20.8637 6.84409 21.5858 7.09581 22.2637C7.75589 24.0415 8.58902 25.8679 9.41417 27.2822M6.98917 20.8494L3.45566 14.7077C2.34925 12.8602 0.199484 14.1172 0.929171 15.7706C1.06886 16.0787 1.32081 16.7017 1.64394 17.5163" stroke="#3C3030" stroke-miterlimit="2.613" stroke-linecap="round" stroke-linejoin="round"/>
<path d="M27.9913 24.4276C28.8821 23.2466 30.5007 21.083 30.8345 20.6545C31.2792 20.0837 32.1087 19.9787 32.6778 20.4212C33.2469 20.8637 33.1557 21.5858 32.9041 22.2637C32.244 24.0414 31.4109 25.8679 30.5857 27.2821M33.0107 20.8494L36.5443 14.7077C37.6507 12.8602 39.8003 14.1171 39.0707 15.7705C38.5593 16.898 36.5468 22.2387 35.0278 25.7912C33.9353 28.3466 33.4884 29.0107 31.5184 30.9375L28.5236 33.8667C28.8714 35.2787 29.2193 36.6906 29.567 38.1026C29.7146 38.6532 29.316 39.2188 28.7844 39.2188H22.6673C21.8306 39.2188 21.3666 38.9134 21.1001 38.1916C19.5367 33.9575 20.933 31.247 22.8662 29.2346" stroke="#3C3030" stroke-miterlimit="2.613" stroke-linecap="round" stroke-linejoin="round"/>
<path d="M2.93457 20.7875H2.93525" stroke="#3C3030" stroke-miterlimit="2.613" stroke-linecap="round" stroke-linejoin="round"/>
<path d="M25.5137 26.9216H25.5144" stroke="#3C3030" stroke-miterlimit="2.613" stroke-linecap="round" stroke-linejoin="round"/>
<path d="M19.9999 3.90625C21.4731 3.90625 22.6785 5.11157 22.6785 6.58485V7.92415C22.6785 9.39735 21.4731 10.6027 19.9999 10.6027C18.5267 10.6027 17.3213 9.39735 17.3213 7.92415V6.58485C17.3213 5.11157 18.5267 3.90625 19.9999 3.90625Z" stroke="#3C3030" stroke-miterlimit="22.926" stroke-linecap="round" stroke-linejoin="round"/>
<path d="M22.0873 9.7571C23.6253 10.5283 24.6874 12.1215 24.6874 13.9508V15.2899H15.3125V13.9508C15.3125 12.1189 16.3776 10.524 17.9189 9.75398" stroke="#3C3030" stroke-miterlimit="22.926" stroke-linecap="round" stroke-linejoin="round"/>
<path d="M12.1874 0.78101C13.6606 0.78101 14.866 1.98632 14.866 3.4596V4.7989C14.866 6.2721 13.6606 7.47742 12.1874 7.47742C10.7142 7.47742 9.50879 6.2721 9.50879 4.7989V3.4596C9.50879 1.98632 10.7142 0.78101 12.1874 0.78101Z" stroke="#3C3030" stroke-miterlimit="22.926" stroke-linecap="round" stroke-linejoin="round"/>
<path d="M15.668 12.1649H7.5V10.8257C7.5 8.9939 8.56516 7.39898 10.1064 6.62898M14.2748 6.63203C15.7141 7.35374 16.7366 8.79531 16.862 10.4766" stroke="#3C3030" stroke-miterlimit="22.926" stroke-linecap="round" stroke-linejoin="round"/>
<path d="M27.8124 0.78101C29.2855 0.78101 30.4909 1.98632 30.4909 3.4596V4.7989C30.4909 6.2721 29.2855 7.47742 27.8124 7.47742C26.3392 7.47742 25.1338 6.2721 25.1338 4.7989V3.4596C25.1338 1.98632 26.3392 0.78101 27.8124 0.78101Z" stroke="#3C3030" stroke-miterlimit="22.926" stroke-linecap="round" stroke-linejoin="round"/>
<path d="M23.1382 10.4766C23.2637 8.79289 24.289 7.34968 25.7315 6.62898M29.8999 6.6321C31.4379 7.40328 32.5001 8.99648 32.5001 10.8258V12.1649H24.332" stroke="#3C3030" stroke-miterlimit="22.926" stroke-linecap="round" stroke-linejoin="round"/>
</g>
</svg>
