<svg width="39" height="39" viewBox="0 0 39 39" fill="none" xmlns="http://www.w3.org/2000/svg">
<g clip-path="url(#clip0_8_20595)">
<path d="M25.5537 25.0505C28.7248 21.7853 28.6965 16.6939 25.4882 13.4607C22.2446 10.1925 16.9207 10.1457 13.6187 13.3555C12.0175 14.9116 11.1249 16.993 11.1048 19.2149C11.0851 21.4368 11.9398 23.533 13.5123 25.1178C15.6867 27.3096 18.8444 28.1275 21.8139 27.2843C22.1762 27.567 22.9412 28.0308 24.0537 28.0308C24.6618 28.0308 25.3733 27.8925 26.1796 27.5097C26.3522 27.4283 26.4601 27.2531 26.4578 27.0627C26.4549 26.8722 26.3411 26.7004 26.167 26.623C25.9524 26.5275 25.3168 26.1626 25.2189 25.7501C25.2048 25.6888 25.1617 25.5039 25.4016 25.2034C25.4529 25.1535 25.5035 25.1026 25.5537 25.0505ZM24.2713 25.977C24.3661 26.375 24.6198 26.6982 24.8935 26.9444C23.2362 27.355 22.3264 26.4482 22.2851 26.4058C22.1918 26.3065 22.0627 26.2526 21.9303 26.2526C21.8808 26.2526 21.831 26.2604 21.7823 26.2757C19.0887 27.1333 16.1851 26.4274 14.2045 24.4312C12.8168 23.0324 12.0622 21.1832 12.08 19.2234C12.0975 17.2641 12.8853 15.4282 14.2986 14.0543C17.2187 11.2161 21.9277 11.257 24.7961 14.1469C27.6261 16.9997 27.6518 21.4911 24.8544 24.3714C24.805 24.4223 24.7544 24.4733 24.7031 24.5227C24.6897 24.5354 24.6774 24.5488 24.6659 24.5625C24.1965 25.1305 24.192 25.6452 24.2713 25.977Z" fill="#3C3030"/>
<path d="M22.8183 17.2134H16.1819C15.9127 17.2134 15.6943 17.4313 15.6943 17.701C15.6943 17.9703 15.9127 18.1882 16.1819 18.1882H22.8183C23.088 18.1882 23.3059 17.9703 23.3059 17.701C23.3059 17.4313 23.088 17.2134 22.8183 17.2134Z" fill="#3C3030"/>
<path d="M22.8183 20.7397H16.1819C15.9127 20.7397 15.6943 20.9577 15.6943 21.2274C15.6943 21.4966 15.9127 21.7146 16.1819 21.7146H22.8183C23.088 21.7146 23.3059 21.4966 23.3059 21.2274C23.3059 20.9577 23.088 20.7397 22.8183 20.7397Z" fill="#3C3030"/>
<path d="M38.3347 7.01542C38.3347 3.51405 35.486 0.665039 31.9847 0.665039C28.4829 0.665039 25.6343 3.51405 25.6343 7.01542C25.6343 10.5168 28.4829 13.3658 31.9847 13.3658C35.486 13.3658 38.3347 10.5168 38.3347 7.01542ZM28.7782 11.3198C28.8374 9.95369 29.7296 8.78285 31.0485 8.38265C31.236 8.32574 31.3717 8.16135 31.3918 7.96571C31.4119 7.77007 31.3122 7.58188 31.1396 7.48815C30.5192 7.15081 30.1339 6.5029 30.1339 5.79734C30.1339 4.73659 30.9972 3.87333 32.0579 3.87333C33.1183 3.87333 33.9816 4.73659 33.9816 5.79734C33.9816 6.52373 33.578 7.18056 32.9279 7.51121C32.7527 7.60047 32.6486 7.78607 32.6634 7.98245C32.6779 8.17846 32.8096 8.34657 32.9963 8.40831C34.2702 8.83046 35.1323 9.99014 35.1911 11.3194C34.2947 11.9893 33.1867 12.391 31.9847 12.391C30.7822 12.391 29.6746 11.9893 28.7782 11.3198ZM26.6091 7.01542C26.6091 4.05149 29.0204 1.64025 31.9847 1.64025C34.9486 1.64025 37.3598 4.05149 37.3598 7.01542C37.3598 8.34955 36.8685 9.56874 36.061 10.5094C35.8011 9.39282 35.0996 8.42765 34.1077 7.84669C34.6447 7.3126 34.9568 6.58175 34.9568 5.79734C34.9568 4.19915 33.6561 2.8985 32.0579 2.8985C30.4597 2.8985 29.1591 4.19915 29.1591 5.79734C29.1591 6.55088 29.4507 7.26053 29.9532 7.7909C28.9099 8.36368 28.1738 9.35153 27.9075 10.509C27.1004 9.56837 26.6091 8.34917 26.6091 7.01542Z" fill="#3C3030"/>
<path d="M7.01542 0.665039C3.51405 0.665039 0.665039 3.51405 0.665039 7.01542C0.665039 10.5168 3.51405 13.3658 7.01542 13.3658C10.5168 13.3658 13.3658 10.5168 13.3658 7.01542C13.3658 3.51405 10.5168 0.665039 7.01542 0.665039ZM3.80899 11.3198C3.8685 9.95369 4.76077 8.78285 6.07964 8.38265C6.26709 8.32574 6.40285 8.16135 6.42256 7.96571C6.44265 7.77007 6.34334 7.58188 6.17039 7.48815C5.55001 7.15081 5.16506 6.5029 5.16506 5.79734C5.16506 4.73659 6.02794 3.87333 7.08869 3.87333C8.14945 3.87333 9.0127 4.73659 9.0127 5.79734C9.0127 6.52373 8.60878 7.18019 7.95864 7.51121C7.78346 7.60047 7.67895 7.78607 7.69383 7.98245C7.70871 8.17846 7.84 8.34657 8.02671 8.40831C9.30058 8.83046 10.1631 9.99014 10.2219 11.3194C9.3255 11.9893 8.21788 12.391 7.01542 12.391C5.81296 12.391 4.70535 11.9893 3.80899 11.3198ZM11.0922 10.5094C10.8318 9.39282 10.13 8.42765 9.13842 7.84669C9.67512 7.3126 9.98754 6.58175 9.98754 5.79734C9.98754 4.19915 8.68689 2.8985 7.08869 2.8985C5.4905 2.8985 4.18985 4.19915 4.18985 5.79734C4.18985 6.55088 4.48182 7.26053 4.98392 7.7909C3.94065 8.36368 3.20497 9.35153 2.93829 10.509C2.1312 9.56837 1.64025 8.34917 1.64025 7.01542C1.64025 4.05149 4.05149 1.64025 7.01542 1.64025C9.97936 1.64025 12.391 4.05149 12.391 7.01542C12.391 8.34955 11.8996 9.56874 11.0922 10.5094Z" fill="#3C3030"/>
<path d="M31.9847 25.6858C28.4829 25.6858 25.6343 28.5344 25.6343 32.0362C25.6343 35.5376 28.4829 38.3866 31.9847 38.3866C35.486 38.3866 38.3347 35.5376 38.3347 32.0362C38.3347 28.5344 35.486 25.6858 31.9847 25.6858ZM28.7782 36.3402C28.8374 34.9744 29.7296 33.8036 31.0485 33.4034C31.236 33.3461 31.3717 33.1821 31.3918 32.9865C31.4119 32.7908 31.3122 32.6026 31.1396 32.5089C30.5192 32.1712 30.1339 31.5233 30.1339 30.8177C30.1339 29.757 30.9972 28.8941 32.0579 28.8941C33.1183 28.8941 33.9816 29.757 33.9816 30.8177C33.9816 31.5445 33.578 32.2013 32.9279 32.5316C32.7527 32.6212 32.6486 32.8068 32.6634 33.0028C32.6779 33.1992 32.8096 33.3673 32.9963 33.4291C34.2702 33.8508 35.1323 35.0109 35.1911 36.3402C34.2947 37.0097 33.1867 37.4114 31.9847 37.4114C30.7822 37.4114 29.6746 37.0097 28.7782 36.3402ZM36.061 35.5301C35.8011 34.4136 35.0996 33.4484 34.1077 32.8674C34.6447 32.333 34.9568 31.6025 34.9568 30.8177C34.9568 29.2195 33.6561 27.9189 32.0579 27.9189C30.4597 27.9189 29.1591 29.2195 29.1591 30.8177C29.1591 31.5713 29.4507 32.2813 29.9532 32.8117C28.9099 33.3844 28.1738 34.3723 27.9075 35.5297C27.1004 34.5891 26.6091 33.3699 26.6091 32.0362C26.6091 29.0719 29.0204 26.6606 31.9847 26.6606C34.9486 26.6606 37.3598 29.0719 37.3598 32.0362C37.3598 33.3699 36.8685 34.5895 36.061 35.5301Z" fill="#3C3030"/>
<path d="M7.01542 25.6858C3.51405 25.6858 0.665039 28.5344 0.665039 32.0362C0.665039 35.5376 3.51405 38.3866 7.01542 38.3866C10.5168 38.3866 13.3658 35.5376 13.3658 32.0362C13.3658 28.5344 10.5168 25.6858 7.01542 25.6858ZM3.80899 36.3402C3.8685 34.9744 4.76077 33.8036 6.07964 33.4034C6.26709 33.3461 6.40285 33.1821 6.42256 32.9865C6.44265 32.7908 6.34334 32.6026 6.17039 32.5089C5.55001 32.1712 5.16506 31.5233 5.16506 30.8177C5.16506 29.757 6.02794 28.8941 7.08869 28.8941C8.14945 28.8941 9.0127 29.757 9.0127 30.8177C9.0127 31.5445 8.60878 32.2009 7.95864 32.5316C7.78346 32.6212 7.67895 32.8068 7.69383 33.0028C7.70871 33.1992 7.84 33.3673 8.02671 33.4291C9.30058 33.8508 10.1631 35.0109 10.2219 36.3402C9.3255 37.0097 8.21788 37.4114 7.01542 37.4114C5.81296 37.4114 4.70535 37.0097 3.80899 36.3402ZM11.0922 35.5301C10.8318 34.4136 10.13 33.4484 9.13842 32.8674C9.67512 32.333 9.98754 31.6025 9.98754 30.8177C9.98754 29.2195 8.68689 27.9189 7.08869 27.9189C5.4905 27.9189 4.18985 29.2195 4.18985 30.8177C4.18985 31.5713 4.48182 32.2813 4.98392 32.8117C3.94065 33.3844 3.20497 34.3723 2.93829 35.5297C2.1312 34.5891 1.64025 33.3699 1.64025 32.0362C1.64025 29.0719 4.05149 26.6606 7.01542 26.6606C9.97936 26.6606 12.391 29.0719 12.391 32.0362C12.391 33.3699 11.8996 34.5895 11.0922 35.5301Z" fill="#3C3030"/>
<path d="M13.8386 0.0334739C13.5887 -0.0617409 13.3053 0.0624847 13.2093 0.314283L12.5833 1.94893C12.4866 2.20036 12.6127 2.48228 12.8641 2.57824L14.4984 3.20457C14.5557 3.22652 14.6145 3.23693 14.6729 3.23693C14.8689 3.23693 15.0537 3.11791 15.1277 2.92339C15.2244 2.67234 15.0983 2.39041 14.8469 2.29408L14.3392 2.09956C15.9646 1.35644 17.6978 0.974836 19.5002 0.974836C21.4272 0.974836 23.2772 1.40553 24.9988 2.25466C25.0684 2.28888 25.1417 2.30524 25.2138 2.30524C25.3938 2.30524 25.5668 2.20556 25.6516 2.03336C25.771 1.79197 25.6713 1.49963 25.4299 1.38062C23.5732 0.464544 21.5782 0 19.5002 0C17.5449 0 15.6652 0.416565 13.903 1.22775L14.1194 0.662785C14.2161 0.411358 14.09 0.129433 13.8386 0.0334739Z" fill="#3C3030"/>
<path d="M2.14196 26.4374C2.33797 26.4374 2.52282 26.3184 2.59684 26.1243L3.22317 24.4896C3.3195 24.2386 3.19342 23.9566 2.94199 23.8603C2.69205 23.7644 2.40901 23.8893 2.31268 24.1415L2.10737 24.6774C1.35904 23.0473 0.974836 21.3085 0.974836 19.5001C0.974836 17.5728 1.40553 15.7228 2.25466 14.0015C2.37405 13.7601 2.27474 13.4678 2.03336 13.3487C1.7916 13.2297 1.49963 13.3287 1.38062 13.57C0.464544 15.4267 0 17.4222 0 19.5001C0 21.4465 0.412846 23.3188 1.21734 25.0743L0.681381 24.8694C0.431442 24.7742 0.148029 24.8984 0.0520706 25.1502C-0.04426 25.4016 0.0814533 25.6832 0.33288 25.7795L1.96753 26.4051C2.0248 26.427 2.08394 26.4374 2.14196 26.4374Z" fill="#3C3030"/>
<path d="M26.1429 36.3911L24.5079 35.7651C24.258 35.6688 23.9749 35.7941 23.8786 36.0459C23.7819 36.2974 23.9083 36.5793 24.1594 36.6752L24.6998 36.8824C23.0633 37.6378 21.3163 38.025 19.4998 38.025C17.5725 38.025 15.7225 37.5947 14.0012 36.7455C13.7594 36.6265 13.4674 36.7254 13.3484 36.9668C13.229 37.2082 13.3283 37.5006 13.5697 37.6196C15.4264 38.5353 17.4218 39.0002 19.4998 39.0002C21.4528 39.0002 23.3311 38.5844 25.0915 37.7747L24.8876 38.3069C24.7909 38.5583 24.917 38.8403 25.1684 38.9362C25.2254 38.9582 25.2845 38.9686 25.3425 38.9686C25.5389 38.9686 25.7234 38.8496 25.7978 38.6554L26.4237 37.0204C26.5204 36.7693 26.3943 36.4874 26.1429 36.3911Z" fill="#3C3030"/>
<path d="M38.3254 14.1004C38.5753 14.1968 38.8584 14.0714 38.9547 13.8196C39.051 13.5682 38.9253 13.2863 38.6739 13.1903L37.0389 12.5647C36.7897 12.4688 36.5063 12.5941 36.4096 12.8455L35.784 14.4798C35.6873 14.7312 35.8137 15.0132 36.0648 15.1091C36.1221 15.1311 36.1812 15.1415 36.2392 15.1415C36.4352 15.1415 36.6201 15.0225 36.6945 14.8283L36.8901 14.3169C37.6403 15.9486 38.0249 17.6896 38.0249 19.5002C38.0249 21.4271 37.5945 23.2771 36.7454 24.9988C36.6257 25.2402 36.7253 25.5325 36.9667 25.6516C37.0363 25.6858 37.1095 25.7018 37.1817 25.7018C37.3617 25.7018 37.5347 25.6025 37.6195 25.4299C38.5352 23.5732 39.0001 21.5781 39.0001 19.5002C39.0001 17.5386 38.5809 15.6525 37.7641 13.8858L38.3254 14.1004Z" fill="#3C3030"/>
</g>
<defs>
<clipPath id="clip0_8_20595">
<rect width="39" height="39" fill="white"/>
</clipPath>
</defs>
</svg>
