<svg width="16" height="22" viewBox="0 0 16 22" fill="none" xmlns="http://www.w3.org/2000/svg">
<path fill-rule="evenodd" clip-rule="evenodd" d="M15.0568 19.3679C14.9408 19.7359 14.7343 20.0716 14.4549 20.3468C14.1754 20.622 13.8312 20.8285 13.4512 20.949C11.4874 21.6376 3.28693 21.8416 1.66807 20.5155C1.14145 20.0742 0.817218 19.451 0.765759 18.7814C0.367679 15.2239 0.420757 4.23264 0.898452 2.9703C1.01832 2.61525 1.22026 2.29087 1.48912 2.02147C1.75799 1.75207 2.08681 1.54463 2.45096 1.4147C4.48117 0.662394 11.8589 0.636892 13.8095 1.5167C14.3172 1.75009 14.7285 2.14082 14.9772 2.62603C15.6672 3.95212 15.6539 17.6083 15.0568 19.3679V19.3679ZM11.2087 13.7193L7.75869 7.34385L4.28213 13.7193L11.2087 13.7193Z" fill="white"/>
</svg>
