<svg width="21" height="16" viewBox="0 0 21 16" fill="none" xmlns="http://www.w3.org/2000/svg">
<path fill-rule="evenodd" clip-rule="evenodd" d="M2.32543 15.27C1.95747 15.1539 1.62174 14.9474 1.34656 14.668C1.07138 14.3886 0.864822 14.0443 0.744326 13.6644C0.0557784 11.7005 -0.148236 3.50007 1.17785 1.88121C1.6192 1.35458 2.24233 1.03035 2.91197 0.978894C6.46947 0.580814 17.4607 0.633892 18.7231 1.11159C19.0781 1.23146 19.4025 1.43339 19.6719 1.70226C19.9413 1.97112 20.1487 2.29995 20.2787 2.6641C21.031 4.6943 21.0565 12.072 20.1767 14.0226C19.9433 14.5304 19.5525 14.9417 19.0673 15.1903C17.7412 15.8803 4.08505 15.8671 2.32543 15.27V15.27ZM7.97407 11.4218L14.3495 7.97183L7.97407 4.49526L7.97407 11.4218Z" fill="#2F2D30"/>
</svg>
